<svg width="40" height="40" viewBox="0 0 40 40" fill="none" xmlns="http://www.w3.org/2000/svg">
<circle cx="20" cy="20" r="20" fill="white"/>
<path d="M18.2015 26.0445C17.9002 25.9738 17.5947 25.8796 17.2827 25.7618C17.1643 25.7169 17.0223 25.6184 16.9556 25.507C16.8157 25.2715 16.8652 24.9053 17.0997 24.7447C17.3752 24.5563 17.741 24.5263 18.0939 24.5649C18.3284 24.5906 18.5393 24.6826 18.7287 24.8432C18.7997 24.9032 18.8858 24.9996 18.9654 25.021C19.1311 25.0681 19.2731 24.8904 19.258 24.7405C19.2408 24.5627 19.0386 24.37 18.8901 24.2801C18.5006 24.0445 17.9992 23.976 17.5559 24.0253C17.046 24.081 16.6414 24.3143 16.4176 24.7876C16.338 24.9546 16.3315 25.1366 16.3423 25.3186C16.3896 26.0723 17.1148 26.3314 17.7388 26.4706C18.1606 26.5648 18.8492 26.7019 18.946 27.1729C19.0063 27.4727 18.832 27.7489 18.5522 27.8689C18.0207 28.098 17.1256 28.0145 16.7382 27.5284C16.7189 27.4941 16.6931 27.4684 16.6608 27.4492C16.4348 27.3464 16.2347 27.6012 16.3229 27.8046C16.5166 28.2564 17.1256 28.447 17.571 28.507C17.9842 28.5626 18.3844 28.507 18.7696 28.3357C19.2387 28.1301 19.4947 27.7018 19.4689 27.1986C19.4323 26.4984 18.8148 26.1858 18.2015 26.0445Z" fill="#2B66A0"/>
<path d="M23.3856 27.5861C22.7681 28.0529 21.9353 28.1 21.3027 27.6289C20.5517 27.0701 20.3559 26.0508 20.911 25.2842C21.4576 24.5305 22.5486 24.3185 23.3168 24.8774C23.6589 25.1279 23.9795 24.6847 23.6589 24.4492C23.1145 24.0466 22.4195 23.9117 21.7632 24.083C20.5753 24.3935 19.82 25.5326 20.0912 26.7489C20.1536 27.0251 20.2569 27.2713 20.4032 27.4855C21.1671 28.6011 22.6669 28.8537 23.7321 28.0101C24.0462 27.7617 23.717 27.3356 23.3856 27.5861Z" fill="#2B66A0"/>
<path d="M13.6522 24.4502C12.7786 24.4995 11.9996 25.0112 11.6532 25.8185C11.6166 25.9041 11.5822 25.9919 11.5499 26.0819C11.5348 26.1097 11.5262 26.1418 11.5241 26.1782C11.5133 26.2382 11.5047 26.3003 11.4939 26.3645C11.4122 26.9341 11.5305 27.4566 11.8468 27.9298C12.5978 29.0518 14.2139 29.3152 15.2403 28.3859C16.1505 27.5615 16.2646 26.1825 15.4641 25.2403C15.0036 24.6986 14.3666 24.4117 13.6522 24.4502ZM13.8567 28.3923C12.3956 28.4651 11.438 26.8099 12.4106 25.6343C12.7248 25.2553 13.1293 25.0455 13.6286 25.0048C14.2504 24.9556 14.7798 25.2168 15.1327 25.7093C15.8901 26.7714 15.1822 28.3281 13.8567 28.3923Z" fill="#2B66A0"/>
<path d="M24.6563 25.1195C23.3695 26.3892 24.0516 28.5305 25.8054 28.9009C26.7952 29.1108 27.7528 28.6633 28.2434 27.7811C28.6695 27.0166 28.5985 26.0209 28.0562 25.325C27.1933 24.218 25.6203 24.1666 24.6563 25.1195ZM27.4106 27.9566C26.7479 28.5712 25.6935 28.5391 25.0522 27.8924C24.2733 27.1066 24.4088 25.8839 25.332 25.2801C25.9173 24.8968 26.7457 24.9032 27.3031 25.3422C28.1423 26.0017 28.1918 27.235 27.4106 27.9566Z" fill="#2B66A0"/>
<path d="M31.6367 25.4744C31.5201 25.4072 31.4073 25.3606 31.2964 25.3344C30.7814 25.2124 30.2644 25.0899 29.7494 24.968C29.3726 24.8787 29.3622 25.1074 29.2917 25.3922C29.2084 25.7313 29.1245 26.0724 29.0401 26.4156L29.0177 26.5093L28.6283 28.1362C28.6066 28.1619 28.5981 28.1885 28.6067 28.2169C28.5695 28.3908 28.5277 28.5658 28.4853 28.7428C28.4628 28.8366 28.4542 28.9006 28.4582 28.9389C28.4891 29.1796 28.7996 29.2685 28.9478 29.0747C28.9735 29.0412 28.9978 28.9765 29.0203 28.8828C29.2855 27.7746 29.5503 26.6685 29.8151 25.5624C29.8166 25.5562 29.8218 25.553 29.828 25.5545C30.2242 25.6461 30.6193 25.7419 31.0149 25.8356C31.1761 25.8738 31.2929 25.9124 31.3654 25.9516C31.6884 26.1272 31.792 26.4335 31.7484 26.7819C31.6544 27.5257 31.0772 27.6641 30.4429 27.5138C30.2964 27.4791 30.1258 27.4431 30.0149 27.5644C29.8865 27.7034 29.9322 27.9101 30.0944 27.9992C30.1921 28.0532 30.3304 28.0485 30.4327 28.0925C30.964 28.3218 31.0856 28.8855 31.0815 29.4018C31.0812 29.5602 31.1033 29.7173 31.2564 29.78C31.4262 29.8466 31.6207 29.7364 31.6332 29.5457C31.6652 29.0426 31.5835 28.506 31.2745 28.0872C31.2697 28.0795 31.2707 28.0753 31.2801 28.0731C31.3019 28.0651 31.3253 28.0596 31.3472 28.0516C31.7468 27.9437 32.0248 27.697 32.1771 27.3105C32.4533 26.6187 32.3222 25.8635 31.6367 25.4744Z" fill="#2B66A0"/>
<path d="M35.4741 30.5086C35.4492 30.4687 35.3698 30.4078 35.3261 30.3962C34.412 30.1426 33.7279 29.9612 33.2771 29.8483C33.1622 29.82 33.0832 29.7991 33.036 29.7843C33.0256 29.7816 33.021 29.7737 33.0238 29.7634L33.3665 28.4847C33.3682 28.4785 33.3734 28.4755 33.3797 28.4771C34.018 28.6464 34.6584 28.8163 35.2967 28.9856C35.4027 29.0137 35.4799 29.0165 35.5695 28.9649C35.7313 28.8682 35.7437 28.6388 35.5963 28.5243C35.5576 28.4941 35.4954 28.4688 35.4101 28.4462C34.7858 28.2828 34.16 28.1168 33.5347 27.9487C33.5201 27.9449 33.5156 27.937 33.5194 27.9225L33.8566 26.6646C33.8583 26.6584 33.8636 26.6553 33.8698 26.657C34.6079 26.8528 35.346 27.0485 36.0841 27.2443C36.3794 27.3226 36.5819 26.9575 36.3427 26.7699C36.3061 26.7403 36.2501 26.7166 36.1732 26.6962C35.3867 26.4898 34.5981 26.2828 33.8133 26.0703C33.6116 26.0168 33.4453 26.0391 33.3843 26.2667C33.072 27.4315 32.7592 28.5984 32.447 29.7633C32.412 29.8936 32.3991 29.9833 32.4098 30.0349C32.4295 30.1442 32.5082 30.2161 32.6454 30.2525C33.4542 30.467 34.2651 30.6821 35.0739 30.8966C35.18 30.9247 35.2555 30.9337 35.3047 30.9246C35.4822 30.8941 35.5719 30.6675 35.4741 30.5086Z" fill="#2B66A0"/>
<path d="M8.75245 29.5172C7.93802 28.4588 7.12101 27.3987 6.30449 26.3407C6.23811 26.2549 6.17433 26.1993 6.07304 26.2007C5.84385 26.203 5.80194 26.3643 5.76279 26.547C5.48864 27.8631 5.21498 29.1813 4.94131 30.4996C4.91565 30.6264 4.9197 30.7859 5.06444 30.8382C5.24031 30.901 5.32586 30.8131 5.42489 30.6694C6.0057 29.8254 6.71872 29.217 7.80404 29.2106C7.81081 29.2113 7.81549 29.2124 7.81904 29.2182C8.00286 29.4571 8.18668 29.6961 8.36631 29.936C8.55514 30.187 8.95801 30.0106 8.8662 29.702C8.84694 29.6383 8.7938 29.5714 8.75245 29.5172ZM7.43026 28.7254C6.76506 28.8282 6.18988 29.0994 5.70024 29.5574C5.69863 29.56 5.69653 29.5604 5.69186 29.5593C5.68718 29.5582 5.68411 29.5545 5.68523 29.5499L6.20299 27.1466C6.2046 27.1441 6.20411 27.142 6.20621 27.1415C6.21201 27.138 6.21879 27.1386 6.22185 27.1423L7.43412 28.7135C7.4346 28.7156 7.4346 28.7156 7.43509 28.7176C7.43767 28.7192 7.43445 28.7244 7.43026 28.7254Z" fill="#2B66A0"/>
<path d="M12.0326 28.6305C11.9883 28.6212 11.923 28.6258 11.8372 28.6463C11.1693 28.8038 10.4993 28.9617 9.83233 29.1233C9.82396 29.1253 9.82086 29.1217 9.81935 29.1154C9.54719 27.9979 9.27661 26.8778 9.00863 25.7592C8.99354 25.6968 8.9757 25.6504 8.9551 25.6201C8.816 25.4199 8.50115 25.4907 8.4609 25.7272C8.45313 25.7775 8.46128 25.857 8.48743 25.9653C8.76806 27.1271 9.0487 28.2888 9.32883 29.4485C9.40025 29.7441 9.54095 29.7678 9.82341 29.7003C10.518 29.5342 11.2148 29.3677 11.9094 29.2017C12.0245 29.1742 12.0999 29.1473 12.1398 29.1202C12.3305 28.9843 12.2618 28.6814 12.0326 28.6305Z" fill="#2B66A0"/>
<path d="M8.73643 10.7192C8.87261 10.7095 9.0088 10.6708 9.15472 10.5934L19.831 7.26828C19.8456 7.26344 19.8602 7.26344 19.8797 7.26828C24.1696 8.59929 28.4596 9.9303 32.7447 11.2661C32.7496 11.2661 32.7642 11.271 32.7934 11.2758C32.842 11.2855 32.8663 11.3242 32.8663 11.392C32.7982 13.5942 32.4869 15.7577 31.9324 17.8873C31.84 18.2455 31.7476 18.6036 31.6601 18.9618C31.2466 17.021 30.376 15.1866 29.0968 13.6668C24.8409 8.62349 17.2094 7.95556 12.1947 12.2196C10.0886 14.0104 8.74615 16.2804 8.16735 19.0247C8.15762 19.0828 8.14789 19.1409 8.14789 19.199C8.14789 19.2038 8.14789 19.2038 8.14303 19.2086C8.13816 19.2086 8.13816 19.2086 8.1333 19.2038C8.04575 18.8602 7.95333 18.5165 7.85605 18.168C7.23347 15.9368 6.92705 13.6474 6.84436 11.3339C6.84436 11.3145 6.85409 11.3 6.87354 11.2903L8.73643 10.7192Z" fill="#DA3A34"/>
<path d="M15.7646 11.2086C15.7889 11.1747 15.8084 11.1554 15.823 11.1505C18.4835 10.1099 21.1587 10.0809 23.8484 11.0634C23.863 11.0682 23.8776 11.0779 23.8874 11.0924L24.4905 11.9782C24.5002 11.9927 24.4953 12.0024 24.4808 12.0072C23.4496 12.2831 22.5303 12.8397 21.7132 13.5125C21.7035 13.5221 21.684 13.527 21.6694 13.5221C20.9252 13.3673 20.3124 13.3479 19.4709 13.3092C18.7802 13.2801 18.0944 13.3092 17.4135 13.4011C17.3503 13.4108 17.287 13.435 17.2287 13.4495C17.2141 13.4544 17.1995 13.4495 17.1897 13.435C16.6304 12.83 16.0127 12.2879 15.3366 11.8088C15.322 11.7991 15.322 11.7846 15.3317 11.77C15.5068 11.5619 15.6528 11.3732 15.7646 11.2086Z" fill="white"/>
<path d="M32.3555 18.5116C33.0316 16.0287 33.3818 13.5022 33.411 10.9273C33.411 10.9128 33.4012 10.9031 33.3915 10.8982L19.9136 6.71646C19.8698 6.70194 19.8261 6.70194 19.7823 6.71646L6.3141 10.8934C6.29464 10.8982 6.28491 10.9128 6.28491 10.9321C6.32869 14.0539 6.8394 17.1032 7.81705 20.0653C7.97269 20.5348 8.1332 21.0042 8.29857 21.4737C8.29857 21.4737 8.30344 21.4737 8.30344 21.4689C8.3083 19.7071 8.66337 18.0518 9.37836 16.503C11.9562 10.9031 18.435 8.36207 24.2036 10.5933L24.4516 10.6998C28.6784 12.5197 31.3827 16.5224 31.5043 21.0817C31.5043 21.0865 31.5092 21.0914 31.5092 21.0914C31.514 21.0914 31.5189 21.0914 31.5238 21.0865C31.8059 20.3218 32.0588 19.5425 32.2825 18.7391C32.3263 18.6181 32.3555 18.5116 32.3555 18.5116ZM8.35208 10.5836C8.38126 10.5836 8.41044 10.6127 8.41044 10.6514C8.41531 10.6901 8.39099 10.724 8.3618 10.7288C8.33262 10.7288 8.30344 10.6998 8.30344 10.6611C8.29857 10.6224 8.32289 10.5836 8.35208 10.5836ZM31.9275 17.8873C31.8351 18.2454 31.7426 18.6036 31.6551 18.9617C31.2417 17.0209 30.371 15.1865 29.0918 13.6667C24.8359 8.62343 17.2044 7.95551 12.1897 12.2244C10.0836 14.0152 8.74119 16.2852 8.16238 19.0343C8.15266 19.0924 8.14293 19.1505 8.14293 19.2086C8.14293 19.2134 8.14293 19.2134 8.13806 19.2183C8.1332 19.2183 8.1332 19.2183 8.12834 19.2134C8.04079 18.8698 7.94837 18.5213 7.85109 18.1777C7.22851 15.9464 6.92208 13.6571 6.8394 11.3435C6.8394 11.3242 6.84913 11.3096 6.86858 11.3L8.73633 10.724C8.87738 10.6417 9.01843 10.5982 9.15462 10.5982L19.8309 7.26822C19.8455 7.26338 19.8601 7.26338 19.8796 7.26822C24.1695 8.59923 28.4595 9.93024 32.7446 11.2661C32.7495 11.2661 32.7641 11.2709 32.7933 11.2758C32.8419 11.2854 32.8662 11.3242 32.8662 11.3919C32.7933 13.5893 32.482 15.7576 31.9275 17.8873Z" fill="white"/>
<path d="M11.0127 19.1217C10.4922 18.6328 10.0399 18.0859 9.65076 17.4857C9.64103 17.4712 9.64103 17.4567 9.64589 17.4422C10.4874 15.2545 11.8833 13.5072 13.8191 12.1907C13.8483 12.1714 13.8824 12.1568 13.9261 12.152C14.2861 12.0988 14.646 12.0358 15.0011 11.9536C15.0157 11.9487 15.0302 11.9536 15.0448 11.9632C15.7307 12.4569 16.363 13.0087 16.9466 13.6234C16.9612 13.6379 16.9612 13.6524 16.9466 13.6669C16.149 14.7463 15.5847 15.9998 15.1178 17.2534C15.1129 17.2679 15.1032 17.2776 15.0838 17.2824C13.7608 17.5922 12.1751 18.2746 11.2364 19.2862C11.2267 19.2959 11.2121 19.3007 11.1975 19.2911C11.1343 19.233 11.071 19.1797 11.0127 19.1217Z" fill="white"/>
<path d="M28.3866 14.6836C28.3866 14.6836 28.2698 14.4465 28.2115 14.3884C27.2679 13.4639 25.9887 12.7428 24.7678 12.2539C24.7532 12.2491 24.7386 12.2442 24.7241 12.2491C23.6686 12.5008 22.7979 13.038 21.9565 13.6962C21.9419 13.7059 21.9419 13.7204 21.9468 13.735C22.5402 15.0031 22.8952 16.2179 22.9098 17.6409C22.9098 17.6602 22.9195 17.6699 22.9341 17.6748C24.4176 18.1733 26.0033 18.9235 27.0782 20.027C27.0879 20.0415 27.1025 20.0415 27.122 20.0367C27.8905 19.6737 28.6541 19.1219 29.335 18.6186C29.3496 18.6089 29.3545 18.5944 29.3545 18.5798C29.4323 17.2392 29.0286 15.8549 28.3866 14.6836ZM24.2571 14.6304C24.2571 14.6449 24.262 14.6546 24.262 14.6643C24.2571 14.6546 24.2571 14.6449 24.2571 14.6304ZM24.2814 14.6933C24.296 14.7078 24.3203 14.7175 24.3447 14.7175C24.3203 14.7223 24.3009 14.7127 24.2814 14.6933Z" fill="white"/>
<path d="M18.5907 20.1383C18.6345 20.1674 18.649 20.2061 18.6393 20.2496C18.5372 20.7288 18.4594 21.2128 18.4107 21.7017C18.4107 21.721 18.3913 21.7355 18.3718 21.7404C15.9496 21.8759 13.5614 22.297 11.251 23.0278C11.2364 23.0327 11.2267 23.0278 11.2267 23.0085C11.217 21.8614 11.2705 20.7143 11.3824 19.572C11.3824 19.5527 11.3921 19.5382 11.4018 19.5236C11.611 19.2913 11.8687 19.0687 12.18 18.8654C13.1139 18.241 14.111 17.8054 15.1665 17.5634C15.1859 17.5586 15.2005 17.5634 15.2103 17.5731C16.4554 18.5701 17.579 19.4268 18.5907 20.1383Z" fill="white"/>
<path d="M26.9227 20.332C26.9227 20.3126 26.9129 20.2981 26.9032 20.2836C26.2855 19.5866 25.3565 19.03 24.4907 18.6331L24.2572 18.517L22.7883 17.9265C22.7738 17.9216 22.7592 17.9216 22.7446 17.9265C21.48 18.5944 20.2445 19.3688 19.0237 20.1142C18.975 20.1432 18.9507 20.1384 18.941 20.211C18.834 20.7531 18.7562 21.2467 18.7075 21.6872C18.7075 21.7065 18.7124 21.7162 18.7318 21.7114C21.514 21.6097 24.2524 21.905 26.947 22.5874C26.9616 22.5923 26.9713 22.5874 26.9713 22.5681C26.9859 21.8227 26.9713 21.0773 26.9227 20.332Z" fill="white"/>
<path d="M31.9323 24.3251C31.9177 24.3202 31.9128 24.3057 31.9177 24.2912C34.0967 19.6931 35.1376 14.8434 35.0403 9.74202C35.0403 9.72266 35.0306 9.70814 35.0111 9.7033L19.8746 5.00363C19.86 4.99879 19.8454 4.99879 19.8309 5.00363L4.67975 9.7033C4.66516 9.70814 4.65543 9.71782 4.65543 9.73234C4.56302 14.8386 5.6039 19.6883 7.78293 24.2912C7.78779 24.3057 7.78779 24.3202 7.76834 24.3251C6.75178 24.78 5.75468 25.2785 4.78189 25.8158C4.69921 25.8593 4.70407 25.869 4.79162 25.84C7.08253 25.0559 9.46098 24.417 11.8638 23.9862C16.825 23.1005 21.8007 23.0424 26.7911 23.812L27.0343 23.8459C29.7484 24.3009 32.3603 24.9881 34.9674 25.8545H34.9722V25.8497C33.9849 25.2979 32.9683 24.7897 31.9323 24.3251ZM11.2023 19.2817C11.1342 19.2285 11.0709 19.1753 11.0126 19.122C10.4921 18.6332 10.0398 18.0862 9.65067 17.4861C9.64095 17.4716 9.64095 17.457 9.64581 17.4425C10.4873 15.2548 11.8832 13.5076 13.8191 12.1911C13.8482 12.1717 13.8823 12.1572 13.9261 12.1524C14.286 12.0991 14.6459 12.0362 15.001 11.9539C15.0156 11.9491 15.0302 11.9539 15.0448 11.9636C15.7306 12.4573 16.3629 13.009 16.9466 13.6237C16.9611 13.6383 16.9611 13.6528 16.9466 13.6673C16.1489 14.7466 15.5847 16.0002 15.1177 17.2538C15.1129 17.2683 15.1031 17.278 15.0837 17.2828C13.7607 17.5926 12.175 18.275 11.2363 19.2866C11.2314 19.2914 11.2169 19.2914 11.2023 19.2817ZM15.3317 11.7797C15.5117 11.5667 15.6527 11.3731 15.7646 11.2086C15.7889 11.1747 15.8084 11.1553 15.823 11.1505C18.4835 10.1099 21.1587 10.0808 23.8484 11.0634C23.863 11.0682 23.8776 11.0779 23.8874 11.0924L24.4905 11.9781C24.5002 11.9926 24.4953 12.0023 24.4808 12.0072C23.4496 12.283 22.5303 12.8396 21.7132 13.5124C21.7035 13.5221 21.684 13.5269 21.6694 13.5221C20.9252 13.3672 20.3124 13.3479 19.4709 13.314C18.7802 13.2849 18.0944 13.314 17.4135 13.4059C17.3503 13.4156 17.287 13.4398 17.2287 13.4543C17.2141 13.4592 17.1995 13.4543 17.1897 13.4398C16.6304 12.8348 16.0127 12.2927 15.3366 11.8136C15.3171 11.8039 15.3171 11.7942 15.3317 11.7797ZM18.6392 20.2497C18.537 20.7289 18.4592 21.2129 18.4106 21.7018C18.4106 21.7211 18.3911 21.7356 18.3717 21.7405C15.9494 21.876 13.5613 22.2971 11.2509 23.0279C11.2363 23.0328 11.2266 23.0279 11.2266 23.0134C11.2169 21.8663 11.2704 20.7192 11.3822 19.577C11.3822 19.5576 11.392 19.5431 11.4017 19.5286C11.6108 19.2963 11.8686 19.0736 12.1799 18.8703C13.1138 18.246 14.1109 17.8104 15.1664 17.5684C15.1858 17.5635 15.2004 17.5684 15.2101 17.578C16.4456 18.5751 17.574 19.4318 18.5857 20.1433C18.6343 20.1675 18.6489 20.2062 18.6392 20.2497ZM18.7316 21.7163C18.7122 21.7163 18.7024 21.7066 18.7073 21.6872C18.7559 21.2468 18.8337 20.7579 18.9408 20.211C18.9553 20.1433 18.9748 20.1481 19.0234 20.1191C20.2443 19.3737 21.4797 18.5993 22.7443 17.9314C22.7589 17.9265 22.7735 17.9217 22.7881 17.9314L24.257 18.5218L24.4905 18.638C25.3611 19.0349 26.2901 19.5915 26.903 20.2885C26.9127 20.303 26.9224 20.3175 26.9224 20.3369C26.9662 21.0822 26.9857 21.8276 26.9711 22.573C26.9711 22.5923 26.9614 22.5972 26.9468 22.5923C24.2522 21.905 21.5138 21.6146 18.7316 21.7163ZM29.3495 18.5799C29.3495 18.5944 29.3398 18.609 29.3301 18.6186C28.6491 19.122 27.8806 19.6738 27.117 20.0368C27.1024 20.0465 27.0878 20.0416 27.0732 20.0271C25.9983 18.9236 24.4127 18.1734 22.9292 17.6748C22.9146 17.67 22.9048 17.6555 22.9048 17.641C22.8903 16.218 22.5303 14.9983 21.9418 13.7302C21.9369 13.7157 21.9369 13.7012 21.9515 13.6915C22.7978 13.0332 23.6636 12.496 24.7191 12.2443C24.7337 12.2395 24.7483 12.2395 24.7629 12.2492C25.9886 12.738 27.2629 13.4592 28.2065 14.3836C28.2649 14.4417 28.2941 14.5046 28.3281 14.5821C28.3427 14.6256 28.3573 14.6595 28.3816 14.6789C29.0285 15.855 29.4322 17.2392 29.3495 18.5799ZM30.9157 21.4259C30.906 21.4259 30.8963 21.4162 30.8963 21.4065C30.7066 20.3756 30.2931 19.4415 29.6657 18.609C29.656 18.5945 29.6511 18.5799 29.6511 18.5606C29.7095 17.2731 29.3836 16.0534 28.834 14.8967C28.8291 14.887 28.8291 14.8773 28.8291 14.8725C28.834 14.8579 28.8388 14.8579 28.8486 14.8725C28.9847 15.0903 29.1209 15.3081 29.2571 15.521C30.3807 17.3167 30.8963 19.2769 30.9206 21.3775C30.9206 21.3823 30.9206 21.3872 30.9254 21.392C30.9303 21.3968 30.9303 21.4017 30.9303 21.4065C30.9303 21.421 30.9254 21.4259 30.9157 21.4259ZM31.5237 21.0967C31.5188 21.0967 31.514 21.0919 31.514 21.0871C31.3924 16.5278 28.688 12.5299 24.4613 10.7052L24.2132 10.5987C18.4446 8.36745 11.9659 10.9085 9.38802 16.5084C8.67303 18.0572 8.31796 19.7125 8.3131 21.4743H8.30823C8.14286 21.0048 7.98235 20.5353 7.82671 20.0658C6.84906 17.0989 6.33835 14.0545 6.29457 10.9327C6.29457 10.9133 6.3043 10.8988 6.32375 10.894L19.7919 6.717C19.8357 6.70248 19.8795 6.70248 19.9233 6.717L33.3963 10.8988C33.4109 10.9036 33.4158 10.9133 33.4158 10.9278C33.3866 13.5027 33.0364 16.0292 32.3603 18.5122C32.3506 18.5509 32.3408 18.5896 32.3311 18.6283C32.3214 18.6671 32.3117 18.6961 32.2971 18.7445C32.0733 19.5431 31.8204 20.3272 31.5383 21.0919C31.5286 21.0967 31.5237 21.0967 31.5237 21.0967Z" fill="#1F4975"/>
<path d="M20.6346 29.9102C20.7556 30.433 20.8575 30.8324 20.9372 31.1109C21.0296 31.4315 21.1156 31.752 21.2016 32.0752C21.208 32.1041 21.2207 32.1698 21.2335 32.2696L20.4116 32.2775C20.402 32.2775 20.3956 32.2723 20.3924 32.2644L19.8254 30.8271C19.8222 30.8219 19.8158 30.8193 19.8127 30.8219C19.8095 30.8219 19.8063 30.8245 19.8063 30.8271L19.2392 32.267C19.2361 32.2749 19.2297 32.2775 19.2201 32.2775L18.3855 32.267L19.0003 29.9102H20.6346Z" fill="#387DC0"/>
<path d="M19.0003 29.9126L18.3855 32.2694H17.3788C17.3756 32.2694 17.3756 32.2721 17.3756 32.2721C17.3756 32.2721 17.3756 32.2747 17.3788 32.2747L18.2676 32.8133C18.2262 32.9473 18.188 33.0787 18.1529 33.2101C18.0605 33.57 17.965 33.9326 17.8694 34.2926C17.8503 34.3609 17.8121 34.4345 17.8025 34.5238C17.793 34.6105 17.7675 34.692 17.7197 34.7708C16.8404 34.106 16.044 33.3861 15.3273 32.6084L15.6841 32.1381L16.3849 31.7203C16.3945 31.715 16.404 31.715 16.4136 31.7203L17.0762 32.1197C17.0985 32.1328 17.1049 32.1302 17.0953 32.1065L16.8468 31.4707C16.8436 31.4602 16.8468 31.447 16.8596 31.4392L17.5317 31.0319C17.5413 31.0266 17.5413 31.024 17.5285 31.024H16.678C16.6684 31.024 16.6621 31.0188 16.6589 31.0109L16.6238 30.9189C16.8882 30.6141 17.1303 30.3041 17.3501 29.9888C17.8821 29.9494 18.4301 29.9257 19.0003 29.9126Z" fill="#2B66A0"/>
<path d="M20.6345 29.9102L22.2783 29.9864L23.0046 30.9217L22.976 31.0137C22.9728 31.0216 22.9664 31.0268 22.9568 31.0268H22.0999C22.0872 31.0268 22.0872 31.0295 22.0967 31.0347L22.7976 31.4499C22.8039 31.4525 22.8071 31.4577 22.8039 31.4656L22.5332 32.1304C22.5268 32.1435 22.5332 32.1461 22.5459 32.1383L23.2244 31.731C23.234 31.7257 23.2404 31.7257 23.2499 31.731C23.457 31.8519 23.6609 31.9727 23.8679 32.0962C24.024 32.1908 24.1674 32.4299 24.2757 32.5692C24.2884 32.5797 24.3076 32.5875 24.333 32.5954C23.6099 33.3863 22.8039 34.1167 21.912 34.7867L21.38 32.8188L22.2688 32.288C22.2783 32.2828 22.2751 32.2801 22.2656 32.2801L21.2366 32.2775C21.2207 32.175 21.2111 32.112 21.2048 32.0831C21.1187 31.7599 21.0295 31.4393 20.9403 31.1188C20.8575 30.8324 20.7588 30.433 20.6345 29.9102Z" fill="#2B66A0"/>
<path d="M17.3502 29.9888C17.1304 30.3041 16.8883 30.6141 16.6239 30.9189L16.4009 30.3619C16.3977 30.3566 16.3945 30.354 16.3881 30.3566C16.3849 30.3566 16.3818 30.3592 16.3818 30.3619L16.1333 30.9951C16.1269 31.0109 16.1078 31.0214 16.0887 31.0214H15.2763C15.27 31.0214 15.2636 31.0266 15.2636 31.0319C15.2636 31.0345 15.2668 31.0371 15.27 31.0398L15.9358 31.4365C15.9453 31.4444 15.9517 31.4549 15.9485 31.4654L15.6841 32.1354L15.3273 32.6057C14.8909 32.1354 14.4927 31.652 14.1295 31.1554C14.5086 30.9373 14.7985 30.6483 15.1489 30.4092C15.2477 30.3409 15.3369 30.2647 15.4133 30.1779C16.0218 30.1018 16.6685 30.0387 17.3502 29.9888Z" fill="#387DC0"/>
<path d="M22.2719 29.9888C22.4917 30.3041 22.7338 30.6141 22.9982 30.9189L23.2212 30.3619C23.2244 30.3566 23.2275 30.354 23.2339 30.3566C23.2371 30.3566 23.2403 30.3592 23.2403 30.3619L23.4888 30.9951C23.4951 31.0109 23.5142 31.0214 23.5334 31.0214H24.3457C24.3521 31.0214 24.3584 31.0266 24.3584 31.0319C24.3584 31.0345 24.3553 31.0371 24.3521 31.0398L23.6863 31.4365C23.6767 31.4444 23.6703 31.4549 23.6735 31.4654L23.9379 32.1354L24.2947 32.6057C24.7312 32.1354 25.1294 31.652 25.4925 31.1554C25.1134 30.9373 24.8235 30.6483 24.4731 30.4092C24.3744 30.3409 24.2852 30.2647 24.2087 30.1779C23.5971 30.1018 22.9504 30.0387 22.2719 29.9888Z" fill="#387DC0"/>
<path d="M15.4101 30.1836C15.3305 30.2703 15.2445 30.3465 15.1457 30.4148C14.7953 30.6539 14.5054 30.9456 14.1263 31.161L13.6389 30.4595C13.6326 30.4516 13.6357 30.4463 13.6485 30.4437C14.2219 30.3412 14.8081 30.2545 15.4101 30.1836Z" fill="#2B66A0"/>
<path d="M24.215 30.1836C24.2946 30.2703 24.3806 30.3465 24.4794 30.4148C24.8298 30.6539 25.1197 30.9456 25.4988 31.161L25.9862 30.4595C25.9925 30.4516 25.9894 30.4463 25.9766 30.4437C25.4064 30.3412 24.8171 30.2545 24.215 30.1836Z" fill="#2B66A0"/>
<path d="M16.6238 30.9476L16.6589 31.0395C16.662 31.0474 16.6684 31.0527 16.678 31.0527H17.5285C17.5413 31.0527 17.5413 31.0553 17.5317 31.0606L16.8532 31.4678C16.8404 31.4757 16.8373 31.4888 16.8404 31.4994L17.0889 32.1352C17.0985 32.1562 17.0889 32.1615 17.0698 32.1483L16.4072 31.749C16.3976 31.7437 16.3881 31.7437 16.3785 31.749L15.6777 32.1667L15.9421 31.4967C15.9453 31.4862 15.9421 31.4757 15.9294 31.4678L15.2699 31.0711C15.2636 31.0684 15.2636 31.0606 15.2667 31.0553C15.2699 31.0527 15.2731 31.0501 15.2763 31.0501H16.0886C16.1077 31.0501 16.1269 31.0395 16.1332 31.0238L16.3817 30.3906C16.3849 30.3853 16.3881 30.3827 16.3945 30.3853C16.3976 30.3853 16.4008 30.3879 16.4008 30.3906L16.6238 30.9476Z" fill="white"/>
<path d="M23.4728 30.9188L23.5079 31.0107C23.5111 31.0186 23.5174 31.0239 23.527 31.0239H24.3776C24.3903 31.0239 24.3903 31.0265 24.3807 31.0318L23.7022 31.439C23.6895 31.4469 23.6863 31.46 23.6895 31.4705L23.9379 32.1064C23.9475 32.1274 23.9379 32.1327 23.9188 32.1195L23.2562 31.7202C23.2467 31.7149 23.2371 31.7149 23.2275 31.7202L22.5267 32.1379L22.7911 31.4679C22.7943 31.4574 22.7911 31.4469 22.7784 31.439L22.1126 31.0423C22.1062 31.0396 22.1062 31.0318 22.1094 31.0265C22.1126 31.0239 22.1158 31.0212 22.1189 31.0212H22.9313C22.9504 31.0212 22.9695 31.0107 22.9759 30.995L23.2244 30.3618C23.2275 30.3565 23.2307 30.3539 23.2371 30.3565C23.2403 30.3565 23.2435 30.3591 23.2435 30.3618L23.4728 30.9188Z" fill="white"/>
<path d="M19.8032 36.5082C19.8127 36.5134 19.8223 36.5134 19.8318 36.5082C22.6225 34.9448 24.811 32.9348 26.4006 30.4781C26.4038 30.4702 26.4134 30.4676 26.4229 30.4702C26.8816 30.5727 27.3627 30.6699 27.7927 30.7776C28.433 30.9379 29.0574 31.1087 29.6627 31.2926C29.7169 31.3084 29.7137 31.311 29.6595 31.3005C28.8886 31.156 28.1145 31.0272 27.3372 30.9143C27.3276 30.9116 27.3181 30.9169 27.3117 30.9248C27.1811 31.114 27.0505 31.3031 26.9167 31.4923C25.773 33.1266 24.2949 34.6348 22.5651 35.8776C21.705 36.495 20.7907 37.0547 19.8255 37.5565C19.8191 37.5591 19.8095 37.5591 19.8032 37.5565C17.0094 36.1009 14.7444 34.217 13.0082 31.9048C12.782 31.6027 12.5495 31.2532 12.3233 30.9274C12.3169 30.9195 12.3106 30.9169 12.2978 30.9169C11.5205 31.0299 10.7464 31.1586 9.97868 31.3058C9.96593 31.3084 9.95319 31.3084 9.94045 31.3058C9.93408 31.3058 9.93408 31.3031 9.94045 31.3031C9.95956 31.2952 9.98186 31.29 10.001 31.2847C11.0522 30.9668 12.1226 30.6962 13.2089 30.4781C13.2185 30.4755 13.2248 30.4781 13.2312 30.486C13.5211 30.9143 13.7282 31.2138 13.8556 31.3846C15.1617 33.1424 16.8023 34.6479 18.7774 35.9012C19.0896 36.0956 19.4591 36.3085 19.8032 36.5082Z" fill="#1F4975"/>
<path d="M18.2645 32.8161L18.8634 33.1787C18.8729 33.1839 18.8761 33.1918 18.8729 33.2023L18.3059 34.6369C18.3059 34.6396 18.3059 34.6422 18.3091 34.6448C18.3123 34.6448 18.3123 34.6448 18.3155 34.6448C18.7838 34.3637 19.252 34.0825 19.7235 33.804C19.8318 33.7383 19.8255 33.7489 19.9306 33.8119C20.3861 34.0904 20.848 34.3663 21.31 34.6369C21.3131 34.6396 21.3195 34.6396 21.3227 34.6343C21.3259 34.6317 21.3259 34.6291 21.3227 34.6264L20.7652 33.2129C20.7588 33.1971 20.7652 33.1787 20.7843 33.1682L21.3769 32.8135L21.9089 34.7815C21.2558 35.2754 20.5613 35.7326 19.8286 36.1556C19.8191 36.1609 19.8127 36.1609 19.8032 36.1556C19.0673 35.7326 18.3696 35.2728 17.7134 34.7762C17.758 34.6974 17.7866 34.6159 17.7962 34.5292C17.8058 34.4425 17.8472 34.3663 17.8631 34.298C17.9587 33.938 18.0542 33.5754 18.1466 33.2155C18.1849 33.0815 18.2231 32.9501 18.2645 32.8161Z" fill="#387DC0"/>
<path d="M22.2623 32.3108L21.2333 32.3081L20.4114 32.316C20.4018 32.316 20.3955 32.3108 20.3923 32.3055L19.8252 30.8657C19.8252 30.863 19.8221 30.8604 19.8189 30.8604C19.8125 30.8578 19.8061 30.8604 19.8061 30.8657L19.2391 32.3055C19.2359 32.3134 19.2295 32.316 19.22 32.316L18.3853 32.3055H17.3787C17.3787 32.3055 17.3755 32.3055 17.3755 32.3081C17.3755 32.3108 17.3755 32.3134 17.3755 32.3134L18.2643 32.852L18.8632 33.2146C18.8727 33.2199 18.8759 33.2278 18.8727 33.2383L18.3057 34.6729C18.3057 34.6755 18.3057 34.6755 18.3057 34.6781C18.3089 34.6807 18.3121 34.6807 18.3153 34.6781C18.7835 34.397 19.2518 34.1158 19.7233 33.8373C19.8316 33.7716 19.8252 33.7822 19.9304 33.8452C20.3859 34.1237 20.8478 34.3996 21.3097 34.6702C21.3129 34.6729 21.3161 34.6729 21.3193 34.6702C21.3257 34.6676 21.3289 34.665 21.3257 34.6597L20.7682 33.2461C20.7618 33.2304 20.7682 33.212 20.7873 33.2015L21.3798 32.8468L22.2686 32.316C22.2718 32.3134 22.2718 32.3108 22.2623 32.3108Z" fill="white"/>
<path d="M30.9254 21.3961C30.9303 21.4009 30.9303 21.4058 30.9303 21.4106C30.9303 21.4203 30.9255 21.4251 30.9157 21.4251C30.906 21.4251 30.8963 21.4155 30.8963 21.4058C30.7066 20.3749 30.2931 19.4407 29.6657 18.6082C29.656 18.5937 29.6511 18.5792 29.6511 18.5598C29.7095 17.2724 29.3836 16.0527 28.834 14.8959C28.8291 14.8863 28.8291 14.8766 28.8291 14.8717C28.834 14.8572 28.8388 14.8572 28.8486 14.8717C28.9847 15.0895 29.1209 15.3073 29.2571 15.5203C30.3807 17.3159 30.8963 19.2762 30.9206 21.3767C30.9206 21.3913 30.9206 21.3961 30.9254 21.3961Z" fill="white"/>
</svg>
