<svg width="93" height="100" viewBox="0 0 93 100" fill="none" xmlns="http://www.w3.org/2000/svg">
<path d="M12.4265 17.4493C12.8406 17.4198 13.2548 17.3017 13.6985 17.0654L46.1643 6.92147C46.2087 6.90671 46.2531 6.90671 46.3122 6.92147C59.3577 10.982 72.4032 15.0426 85.4339 19.1179C85.4487 19.1179 85.4931 19.1326 85.5818 19.1474C85.7297 19.1769 85.8037 19.295 85.8037 19.5018C85.5966 26.2201 84.65 32.8203 82.9639 39.3172C82.6828 40.4098 82.4018 41.5025 82.1356 42.5952C80.8783 36.6741 78.2308 31.078 74.3408 26.4416C61.3988 11.0558 38.1921 9.01819 22.9427 22.0267C16.5383 27.4899 12.4561 34.415 10.696 42.7871C10.6664 42.9643 10.6368 43.1415 10.6368 43.3187C10.6368 43.3334 10.6368 43.3334 10.622 43.3482C10.6072 43.3482 10.6072 43.3482 10.5924 43.3334C10.3262 42.2851 10.0452 41.2367 9.74934 40.1736C7.85611 33.3667 6.9243 26.3825 6.67285 19.3246C6.67285 19.2655 6.70243 19.2212 6.7616 19.1917L12.4265 17.4493Z" fill="#DA3A34"/>
<path d="M33.7989 18.9405C33.8729 18.8371 33.932 18.778 33.9764 18.7633C42.067 15.5887 50.2019 15.5001 58.3812 18.4975C58.4256 18.5123 58.47 18.5418 58.4996 18.5861L60.3336 21.2882C60.3632 21.3325 60.3484 21.362 60.304 21.3768C57.1684 22.2184 54.3729 23.9165 51.8881 25.9689C51.8585 25.9984 51.7993 26.0132 51.755 25.9984C49.492 25.5259 47.6283 25.4669 45.0695 25.3487C42.9692 25.2601 40.8837 25.3487 38.813 25.6293C38.6207 25.6588 38.4284 25.7326 38.2509 25.7769C38.2066 25.7917 38.1622 25.7769 38.1326 25.7326C36.4317 23.8869 34.5532 22.2332 32.4973 20.7714C32.4529 20.7419 32.453 20.6976 32.4825 20.6533C33.015 20.0183 33.4587 19.4425 33.7989 18.9405Z" fill="white"/>
<path d="M84.2514 41.2221C86.3073 33.6473 87.3723 25.9397 87.461 18.0844C87.461 18.0401 87.4314 18.0105 87.4019 17.9958L46.4165 5.2383C46.2834 5.194 46.1503 5.194 46.0172 5.2383L5.0614 17.981C5.00224 17.9958 4.97266 18.0401 4.97266 18.0991C5.10577 27.6229 6.65881 36.9253 9.63176 45.9618C10.1051 47.3941 10.5932 48.8263 11.0961 50.2586C11.0961 50.2586 11.1108 50.2586 11.1108 50.2438C11.1256 44.8692 12.2054 39.8193 14.3796 35.0943C22.2187 18.0105 41.9201 10.2586 59.462 17.0655L60.2163 17.3904C73.0696 22.9423 81.2932 35.1534 81.663 49.0626C81.663 49.0774 81.6778 49.0921 81.6778 49.0921C81.6926 49.0921 81.7074 49.0921 81.7222 49.0774C82.58 46.7444 83.3492 44.3671 84.0295 41.916C84.1627 41.5469 84.2514 41.2221 84.2514 41.2221ZM11.2588 17.036C11.3475 17.036 11.4362 17.1246 11.4362 17.2427C11.451 17.3609 11.3771 17.4642 11.2883 17.479C11.1996 17.479 11.1108 17.3904 11.1108 17.2723C11.0961 17.1541 11.17 17.036 11.2588 17.036ZM82.9498 39.3173C82.6688 40.41 82.3878 41.5026 82.1215 42.5953C80.8643 36.6743 78.2168 31.0781 74.3268 26.4417C61.3848 11.0559 38.178 9.01829 22.9287 22.0416C16.5243 27.5048 12.442 34.4299 10.6819 42.8167C10.6523 42.9939 10.6227 43.1711 10.6227 43.3483C10.6227 43.3631 10.6227 43.3631 10.608 43.3778C10.5932 43.3778 10.5932 43.3778 10.5784 43.3631C10.3121 42.3147 10.0311 41.2516 9.7353 40.2032C7.84208 33.3963 6.91025 26.4122 6.65881 19.3542C6.65881 19.2952 6.68839 19.2509 6.74755 19.2213L12.4272 17.4642C12.8562 17.2132 13.2851 17.0803 13.6992 17.0803L46.1651 6.92158C46.2094 6.90681 46.2538 6.90681 46.313 6.92158C59.3585 10.9821 72.404 15.0427 85.4347 19.118C85.4495 19.118 85.4938 19.1327 85.5826 19.1475C85.7305 19.177 85.8044 19.2952 85.8044 19.5019C85.5826 26.2055 84.636 32.8204 82.9498 39.3173Z" fill="white"/>
<path d="M19.3476 43.0821C17.765 41.5908 16.3894 39.9223 15.2062 38.0914C15.1766 38.0471 15.1766 38.0028 15.1914 37.9585C17.7502 31.2844 21.9951 25.954 27.8819 21.9378C27.9706 21.8787 28.0742 21.8344 28.2073 21.8197C29.3018 21.6573 30.3963 21.4653 31.476 21.2143C31.5204 21.1995 31.5648 21.2143 31.6092 21.2438C33.6947 22.7499 35.6175 24.4332 37.3924 26.3084C37.4367 26.3527 37.4367 26.397 37.3924 26.4413C34.9667 29.734 33.2509 33.5583 31.831 37.3826C31.8162 37.4269 31.7867 37.4564 31.7275 37.4712C27.7044 38.4162 22.8826 40.4982 20.028 43.5842C19.9984 43.6137 19.954 43.6285 19.9096 43.5989C19.7173 43.4217 19.5251 43.2593 19.3476 43.0821Z" fill="white"/>
<path d="M72.1808 29.5421C72.1808 29.5421 71.8258 28.8186 71.6483 28.6414C68.7789 25.8212 64.8889 23.6211 61.1764 22.1298C61.132 22.115 61.0876 22.1002 61.0433 22.115C57.8337 22.8828 55.1861 24.5218 52.6273 26.5299C52.5829 26.5594 52.5829 26.6037 52.5977 26.648C54.4022 30.5166 55.4819 34.2228 55.5263 38.5639C55.5263 38.6229 55.5559 38.6525 55.6002 38.6672C60.1114 40.1881 64.9333 42.4768 68.202 45.8433C68.2316 45.8876 68.276 45.8876 68.3351 45.8729C70.6721 44.7654 72.9942 43.0821 75.065 41.5465C75.1093 41.517 75.1241 41.4727 75.1241 41.4284C75.3608 37.3383 74.1331 33.1154 72.1808 29.5421ZM59.6233 29.3797C59.6233 29.424 59.6381 29.4535 59.6381 29.483C59.6233 29.4535 59.6233 29.424 59.6233 29.3797ZM59.6973 29.5716C59.7417 29.6159 59.8156 29.6455 59.8896 29.6455C59.8156 29.6602 59.7565 29.6307 59.6973 29.5716Z" fill="white"/>
<path d="M42.3928 46.1829C42.5259 46.2715 42.5703 46.3896 42.5407 46.5225C42.2301 47.9843 41.9935 49.4608 41.8455 50.9522C41.8455 51.0112 41.7864 51.0555 41.7272 51.0703C34.3614 51.4837 27.0991 52.7683 20.0735 54.9979C20.0291 55.0127 19.9995 54.9979 19.9995 54.9389C19.9699 51.4394 20.1326 47.94 20.4728 44.4553C20.4728 44.3962 20.5024 44.3519 20.532 44.3076C21.168 43.5989 21.9519 42.9197 22.8985 42.2995C25.7384 40.3948 28.7705 39.0659 31.9801 38.3276C32.0392 38.3128 32.0836 38.3276 32.1132 38.3571C35.8996 41.3988 39.3163 44.0123 42.3928 46.1829Z" fill="white"/>
<path d="M67.7287 46.7736C67.7287 46.7146 67.6992 46.6703 67.6696 46.626C65.7912 44.4997 62.9661 42.8017 60.3333 41.5909L59.6234 41.2365L55.1566 39.4351C55.1122 39.4204 55.0678 39.4204 55.0234 39.4351C51.1778 41.4728 47.421 43.8353 43.7085 46.1092C43.5606 46.1978 43.4866 46.183 43.457 46.4045C43.1316 48.0583 42.895 49.5643 42.7471 50.908C42.7471 50.9671 42.7619 50.9966 42.821 50.9818C51.2814 50.6718 59.6086 51.5725 67.8027 53.6544C67.8471 53.6692 67.8767 53.6544 67.8767 53.5954C67.921 51.3215 67.8767 49.0475 67.7287 46.7736Z" fill="white"/>
<path d="M50.0253 57.0212C50.5874 59.9596 51.0607 62.204 51.4304 63.7691C51.8594 65.5705 52.2587 67.3719 52.6581 69.1881C52.6877 69.3505 52.7468 69.7197 52.806 70.2807L48.99 70.325C48.9456 70.325 48.916 70.2955 48.9012 70.2512L46.2685 62.1744C46.2537 62.1449 46.2241 62.1301 46.2093 62.1449C46.1945 62.1449 46.1797 62.1597 46.1797 62.1744L43.5469 70.266C43.5322 70.3103 43.5026 70.325 43.4582 70.325L39.583 70.266L42.4376 57.0212L50.0253 57.0212Z" fill="#387DC0"/>
<path d="M42.4366 57.0361L39.582 70.2809L34.9081 70.2809C34.8933 70.2809 34.8933 70.2956 34.8933 70.2956C34.8933 70.2956 34.8933 70.3104 34.9081 70.3104L39.0347 73.3374C38.8425 74.0904 38.665 74.8287 38.5023 75.567C38.0733 77.5898 37.6296 79.6275 37.1859 81.6504C37.0971 82.0343 36.9196 82.4477 36.8753 82.9498C36.8309 83.437 36.7126 83.8948 36.4907 84.3377C32.4084 80.602 28.7107 76.5563 25.3828 72.1856L27.0394 69.5426L30.2934 67.1949C30.3377 67.1653 30.3821 67.1653 30.4265 67.1949L33.503 69.4392C33.6065 69.5131 33.6361 69.4983 33.5917 69.3654L32.438 65.7921C32.4232 65.7331 32.438 65.6592 32.4972 65.6149L35.6181 63.3263C35.6624 63.2967 35.6624 63.282 35.6033 63.282L31.6541 63.282C31.6097 63.282 31.5802 63.2525 31.5654 63.2082L31.4027 62.6914C32.6303 60.9785 33.7544 59.2362 34.775 57.4643C37.245 57.2429 39.7891 57.11 42.4366 57.0361Z" fill="#2B66A0"/>
<path d="M50.0244 57.0212L57.6565 57.4494L61.0288 62.706L60.8957 63.2228C60.8809 63.2671 60.8513 63.2966 60.8069 63.2966L56.8282 63.2966C56.769 63.2966 56.769 63.3114 56.8134 63.3409L60.0674 65.6739C60.097 65.6886 60.1118 65.7182 60.097 65.7625L58.8397 69.4982C58.8102 69.572 58.8397 69.5868 58.8989 69.5425L62.0494 67.2538C62.0937 67.2243 62.1233 67.2243 62.1677 67.2538C63.1291 67.933 64.0757 68.6122 65.0371 69.3062C65.7618 69.8378 66.4274 71.1814 66.9303 71.964C66.9895 72.0231 67.0782 72.0674 67.1966 72.1117C63.839 76.5561 60.097 80.661 55.9555 84.4262L53.4855 73.3668L57.6121 70.3841C57.6565 70.3546 57.6417 70.3398 57.5973 70.3398L52.8199 70.325C52.7459 69.7492 52.7016 69.3948 52.672 69.2324C52.2726 67.4162 51.8585 65.6148 51.4443 63.8134C51.0598 62.204 50.6013 59.9596 50.0244 57.0212Z" fill="#2B66A0"/>
<path d="M82.9641 58.9553C82.9197 58.9406 82.9049 58.8963 82.9197 58.852C89.546 44.8247 92.7112 30.0295 92.4154 14.4666C92.4154 14.4075 92.3858 14.3632 92.3266 14.3485L46.2976 0.0110743C46.2533 -0.00369128 46.2089 -0.00369128 46.1645 0.0110743L0.0911403 14.3485C0.0467679 14.3632 0.0171863 14.3928 0.0171863 14.4371C-0.263839 30.0148 2.90139 44.8099 9.52768 58.852C9.54247 58.8963 9.54247 58.9406 9.48331 58.9553C6.39203 60.3433 3.35991 61.8642 0.401749 63.5031C0.150305 63.636 0.165093 63.6656 0.431328 63.577C7.3978 61.1849 14.6305 59.2359 21.9372 57.9217C37.0238 55.2196 52.1548 55.0425 67.3302 57.3902L68.0697 57.4935C76.323 58.8815 84.2656 60.9782 92.1935 63.6213L92.2083 63.6213L92.2083 63.6065C89.2058 61.9232 86.1145 60.3728 82.9641 58.9553ZM19.9256 43.5696C19.7185 43.4072 19.5263 43.2447 19.3488 43.0823C17.7662 41.591 16.3906 39.9225 15.2074 38.0915C15.1778 38.0473 15.1778 38.003 15.1926 37.9587C17.7514 31.2846 21.9963 25.9542 27.8831 21.938C27.9718 21.8789 28.0753 21.8346 28.2085 21.8199C29.303 21.6574 30.3975 21.4655 31.4772 21.2145C31.5216 21.1997 31.566 21.2145 31.6104 21.244C33.6959 22.7501 35.6187 24.4334 37.3936 26.3086C37.4379 26.3529 37.4379 26.3972 37.3936 26.4415C34.9679 29.7342 33.2521 33.5585 31.8322 37.3828C31.8174 37.4271 31.7879 37.4566 31.7287 37.4714C27.7056 38.4164 22.8838 40.4983 20.0292 43.5844C20.0144 43.5991 19.97 43.5991 19.9256 43.5696ZM32.483 20.6829C33.0303 20.0332 33.4592 19.4426 33.7994 18.9406C33.8734 18.8372 33.9325 18.7781 33.9769 18.7634C42.0675 15.5888 50.2024 15.5002 58.3817 18.4976C58.4261 18.5124 58.4705 18.5419 58.5001 18.5862L60.3341 21.2883C60.3637 21.3326 60.3489 21.3621 60.3045 21.3769C57.1689 22.2185 54.3734 23.9166 51.8886 25.969C51.859 25.9985 51.7998 26.0133 51.7554 25.9985C49.4924 25.526 47.6288 25.467 45.07 25.3636C42.9697 25.275 40.8842 25.3636 38.8135 25.6441C38.6212 25.6737 38.4289 25.7475 38.2514 25.7918C38.2071 25.8066 38.1627 25.7918 38.1331 25.7475C36.4322 23.9018 34.5537 22.2481 32.4978 20.7863C32.4386 20.7567 32.4386 20.7272 32.483 20.6829ZM42.5408 46.5227C42.2302 47.9845 41.9935 49.4611 41.8456 50.9524C41.8456 51.0114 41.7864 51.0557 41.7273 51.0705C34.3614 51.4839 27.0992 52.7686 20.0735 54.9982C20.0292 55.0129 19.9996 54.9982 19.9996 54.9539C19.97 51.4544 20.1327 47.955 20.4729 44.4703C20.4729 44.4112 20.5025 44.3669 20.532 44.3226C21.168 43.6139 21.952 42.9347 22.8986 42.3145C25.7384 40.4097 28.7705 39.0808 31.9801 38.3426C32.0393 38.3278 32.0837 38.3426 32.1132 38.3721C35.8701 41.4138 39.3016 44.0273 42.3781 46.1979C42.526 46.2717 42.5703 46.3898 42.5408 46.5227ZM42.8218 50.9967C42.7626 50.9967 42.733 50.9671 42.7478 50.9081C42.8957 49.5644 43.1324 48.0731 43.4578 46.4046C43.5022 46.1979 43.5613 46.2126 43.7092 46.124C47.4217 43.8501 51.1786 41.4876 55.0242 39.45C55.0686 39.4352 55.113 39.4205 55.1573 39.45L59.6241 41.2514L60.3341 41.6058C62.9817 42.8165 65.8067 44.5146 67.6704 46.6408C67.6999 46.6851 67.7295 46.7294 67.7295 46.7885C67.8626 49.0624 67.9218 51.3363 67.8774 53.6102C67.8774 53.6693 67.8478 53.684 67.8035 53.6693C59.6094 51.5725 51.2821 50.6866 42.8218 50.9967ZM75.1101 41.4286C75.1101 41.4729 75.0805 41.5172 75.051 41.5467C72.9802 43.0823 70.6433 44.7656 68.3211 45.873C68.2768 45.9025 68.2324 45.8878 68.188 45.8435C64.9193 42.4769 60.0975 40.1883 55.5863 38.6674C55.5419 38.6526 55.5123 38.6083 55.5123 38.564C55.4679 34.223 54.3734 30.502 52.5837 26.6334C52.5689 26.5891 52.5689 26.5449 52.6133 26.5153C55.1869 24.5072 57.8197 22.8682 61.0293 22.1004C61.0737 22.0856 61.118 22.0856 61.1624 22.1152C64.8897 23.6065 68.7649 25.8066 71.6343 28.6268C71.8118 28.804 71.9005 28.9959 72.0041 29.2322C72.0484 29.3651 72.0928 29.4684 72.1668 29.5275C74.1339 33.1155 75.3616 37.3385 75.1101 41.4286ZM79.8728 50.1107C79.8432 50.1107 79.8136 50.0812 79.8136 50.0517C79.2368 46.9066 77.9796 44.0569 76.0715 41.5172C76.042 41.4729 76.0272 41.4286 76.0272 41.3695C76.2047 37.4419 75.2137 33.7209 73.5423 30.192C73.5275 30.1624 73.5275 30.1329 73.5275 30.1181C73.5423 30.0738 73.5571 30.0738 73.5867 30.1181C74.0008 30.7826 74.415 31.447 74.8291 32.0967C78.2458 37.5748 79.8136 43.5548 79.8876 49.9631C79.8876 49.9779 79.8876 49.9926 79.9024 50.0074C79.9171 50.0222 79.9172 50.0369 79.9172 50.0517C79.9172 50.096 79.9024 50.1107 79.8728 50.1107ZM81.7216 49.1067C81.7068 49.1067 81.692 49.0919 81.692 49.0772C81.3223 35.168 73.0986 22.9716 60.2454 17.4049L59.491 17.0801C41.9491 10.2732 22.2478 18.0251 14.4086 35.1089C12.2344 39.8339 11.1547 44.8837 11.1399 50.2584L11.1251 50.2584C10.6222 48.8261 10.1341 47.3939 9.6608 45.9616C6.68784 36.9103 5.13481 27.6227 5.00169 18.0989C5.00169 18.0399 5.03127 17.9956 5.09043 17.9808L46.0462 5.2381C46.1793 5.1938 46.3124 5.1938 46.4455 5.2381L87.4161 17.9956C87.4605 18.0103 87.4753 18.0399 87.4753 18.0842C87.3865 25.9395 86.3216 33.6471 84.2656 41.2219C84.2361 41.34 84.2065 41.4581 84.1769 41.5762C84.1473 41.6944 84.1177 41.7829 84.0734 41.9306C83.393 44.3669 82.6239 46.759 81.766 49.0919C81.7364 49.1067 81.7216 49.1067 81.7216 49.1067Z" fill="#1F4975"/>
<path d="M34.7758 57.4641C33.7552 59.236 32.6311 60.9783 31.4035 62.6911L30.3681 59.5608C30.3533 59.5313 30.3385 59.5165 30.3089 59.5313C30.2942 59.5313 30.2794 59.5461 30.2794 59.5608L29.1257 63.1193C29.0961 63.2079 29.0074 63.267 28.9186 63.267L25.147 63.267C25.1174 63.267 25.0878 63.2965 25.0878 63.3261C25.0878 63.3408 25.1026 63.3556 25.1174 63.3704L28.2086 65.6C28.253 65.6442 28.2826 65.7033 28.2678 65.7624L27.0402 69.5276L25.3836 72.1706C23.3573 69.5276 21.5084 66.8107 19.8223 64.02C21.5824 62.7945 22.9283 61.1703 24.5553 59.8266C25.0138 59.4427 25.428 59.0145 25.783 58.5272C28.608 58.099 31.6105 57.7447 34.7758 57.4641Z" fill="#387DC0"/>
<path d="M57.627 57.4641C58.6475 59.236 59.7716 60.9783 60.9993 62.6911L62.0346 59.5608C62.0494 59.5313 62.0642 59.5165 62.0938 59.5313C62.1086 59.5313 62.1234 59.5461 62.1234 59.5608L63.277 63.1193C63.3066 63.2079 63.3954 63.267 63.4841 63.267L67.2558 63.267C67.2853 63.267 67.3149 63.2965 67.3149 63.3261C67.3149 63.3408 67.3001 63.3556 67.2854 63.3704L64.1941 65.6C64.1497 65.6442 64.1201 65.7033 64.1349 65.7624L65.3625 69.5276L67.0191 72.1706C69.0455 69.5276 70.8943 66.8107 72.5805 64.02C70.8204 62.7945 69.4744 61.1703 67.8474 59.8266C67.3889 59.4427 66.9747 59.0145 66.6198 58.5272C63.7799 58.099 60.7774 57.7447 57.627 57.4641Z" fill="#387DC0"/>
<path d="M25.7688 58.5571C25.399 59.0444 24.9996 59.4726 24.5411 59.8565C22.9141 61.2002 21.5682 62.8391 19.8081 64.0499L17.5451 60.1075C17.5155 60.0632 17.5303 60.0337 17.5894 60.0189C20.2518 59.4431 22.9733 58.9558 25.7688 58.5571Z" fill="#2B66A0"/>
<path d="M66.6504 58.5571C67.0202 59.0444 67.4195 59.4726 67.878 59.8565C69.505 61.2002 70.851 62.8391 72.6111 64.0499L74.8741 60.1075C74.9037 60.0632 74.8889 60.0337 74.8297 60.0189C72.1822 59.4431 69.4459 58.9558 66.6504 58.5571Z" fill="#2B66A0"/>
<path d="M31.4034 62.6913L31.5661 63.2081C31.5809 63.2524 31.6105 63.2819 31.6548 63.2819L35.604 63.2819C35.6631 63.2819 35.6631 63.2967 35.6188 63.3262L32.4683 65.6149C32.4092 65.6591 32.3944 65.733 32.4092 65.792L33.5628 69.3653C33.6072 69.4834 33.5628 69.513 33.4741 69.4391L30.3976 67.1948C30.3532 67.1652 30.3089 67.1652 30.2645 67.1948L27.0105 69.5425L28.2381 65.7773C28.2529 65.7182 28.2381 65.6591 28.179 65.6149L25.1173 63.3852C25.0877 63.3705 25.0877 63.3262 25.1025 63.2967C25.1173 63.2819 25.1321 63.2671 25.1469 63.2671L28.9185 63.2671C29.0073 63.2671 29.096 63.2081 29.1256 63.1195L30.2793 59.561C30.2941 59.5314 30.3089 59.5167 30.3384 59.5314C30.3532 59.5314 30.368 59.5462 30.368 59.561L31.4034 62.6913Z" fill="white"/>
<path d="M63.2044 62.6913L63.3671 63.2081C63.3819 63.2524 63.4115 63.2819 63.4559 63.2819L67.405 63.2819C67.4642 63.2819 67.4642 63.2967 67.4198 63.3262L64.2694 65.6149C64.2102 65.6591 64.1954 65.733 64.2102 65.792L65.3639 69.3653C65.4083 69.4834 65.3639 69.513 65.2752 69.4391L62.1987 67.1948C62.1543 67.1652 62.1099 67.1652 62.0655 67.1948L58.8116 69.5425L60.0392 65.7773C60.054 65.7182 60.0392 65.6591 59.98 65.6149L56.8888 63.3852C56.8592 63.3705 56.8592 63.3262 56.874 63.2967C56.8888 63.2819 56.9036 63.2671 56.9183 63.2671L60.69 63.2671C60.7787 63.2671 60.8675 63.2081 60.8971 63.1195L62.0508 59.561C62.0655 59.5314 62.0803 59.5167 62.1099 59.5314C62.1247 59.5314 62.1395 59.5462 62.1395 59.561L63.2044 62.6913Z" fill="white"/>
<path d="M46.1632 94.0975C46.2075 94.1271 46.2519 94.1271 46.2963 94.0975C59.253 85.312 69.4143 74.0163 76.7949 60.2105C76.8097 60.1662 76.8541 60.1514 76.8985 60.1662C79.0284 60.742 81.2618 61.2884 83.2585 61.8938C86.2315 62.7945 89.1305 63.7542 91.9407 64.7878C92.1922 64.8764 92.1774 64.8912 91.9259 64.8321C88.3466 64.02 84.7524 63.2965 81.1434 62.6616C81.0991 62.6468 81.0547 62.6763 81.0251 62.7206C80.4187 63.7838 79.8123 64.8469 79.1911 65.91C73.8812 75.0942 67.0182 83.5697 58.9868 90.5538C54.9933 94.0237 50.7483 97.1688 46.2667 99.989C46.2371 100.004 46.1928 100.004 46.1632 99.989C33.1916 91.8089 22.6754 81.2219 14.6144 68.2282C13.5642 66.5302 12.4845 64.5663 11.4343 62.7354C11.4048 62.6911 11.3752 62.6763 11.316 62.6763C7.70706 63.3113 4.1129 64.0348 0.548311 64.8616C0.489147 64.8764 0.429982 64.8764 0.370819 64.8616C0.341237 64.8616 0.341237 64.8469 0.370819 64.8469C0.459564 64.8026 0.563099 64.773 0.651844 64.7435C5.53281 62.9569 10.5025 61.436 15.5462 60.2105C15.5906 60.1957 15.6201 60.2105 15.6497 60.2548C16.9957 62.6616 17.9571 64.3448 18.5487 65.3046C24.613 75.1828 32.2302 83.6435 41.4005 90.6867C42.85 91.7793 44.5658 92.9753 46.1632 94.0975Z" fill="#1F4975"/>
<path d="M39.0217 73.3519L41.8024 75.3896C41.8467 75.4191 41.8615 75.4634 41.8467 75.5225L39.214 83.5845C39.214 83.5992 39.214 83.614 39.2288 83.6288C39.2436 83.6288 39.2436 83.6288 39.2583 83.6288C41.4326 82.0489 43.6068 80.4689 45.7959 78.9038C46.2988 78.5346 46.2692 78.5937 46.7573 78.9481C48.8724 80.5132 51.017 82.0636 53.1617 83.5845C53.1765 83.5992 53.2061 83.5992 53.2209 83.5697C53.2357 83.5549 53.2357 83.5402 53.2209 83.5254L50.6325 75.5815C50.6029 75.4929 50.6325 75.3896 50.7212 75.3305L53.4723 73.3372L55.9424 84.3966C52.9103 87.1725 49.6859 89.7417 46.284 92.119C46.2396 92.1485 46.21 92.1485 46.1657 92.119C42.749 89.7417 39.5098 87.1578 36.4629 84.3671C36.67 83.9241 36.8031 83.4664 36.8474 82.9791C36.8918 82.4918 37.0841 82.0636 37.1581 81.6797C37.6018 79.6568 38.0455 77.6192 38.4744 75.5963C38.6519 74.8432 38.8294 74.105 39.0217 73.3519Z" fill="#387DC0"/>
<path d="M57.5827 70.2953L52.8052 70.2806L48.9892 70.3248C48.9448 70.3248 48.9152 70.2953 48.9005 70.2658L46.2677 62.1742C46.2677 62.1595 46.2529 62.1447 46.2381 62.1447C46.2085 62.1299 46.1789 62.1447 46.1789 62.1742L43.5462 70.2658C43.5314 70.3101 43.5018 70.3248 43.4574 70.3248L39.5822 70.2658L34.9084 70.2658C34.9084 70.2658 34.8936 70.2658 34.8936 70.2806C34.8936 70.2953 34.8936 70.3101 34.8936 70.3101L39.0202 73.337L41.8009 75.3747C41.8452 75.4042 41.86 75.4485 41.8452 75.5076L39.2125 83.5696C39.2125 83.5844 39.2125 83.5844 39.2125 83.5991C39.2273 83.6139 39.2421 83.6139 39.2568 83.5991C41.4311 82.0192 43.6053 80.4393 45.7944 78.8741C46.2973 78.505 46.2677 78.5641 46.7558 78.9184C48.8709 80.4836 51.0155 82.034 53.1602 83.5548C53.175 83.5696 53.1898 83.5696 53.2046 83.5548C53.2342 83.5401 53.249 83.5253 53.2342 83.4958L50.6458 75.5519C50.6162 75.4633 50.6458 75.3599 50.7345 75.3009L53.4856 73.3075L57.6122 70.3248C57.627 70.3101 57.627 70.2953 57.5827 70.2953Z" fill="white"/>
<path d="M79.9022 50.0222C79.917 50.037 79.917 50.0517 79.917 50.0665C79.917 50.096 79.9022 50.1108 79.8726 50.1108C79.843 50.1108 79.8134 50.0813 79.8134 50.0517C79.2366 46.9067 77.9794 44.0569 76.0714 41.5172C76.0418 41.4729 76.027 41.4286 76.027 41.3696C76.2045 37.4419 75.2135 33.721 73.5421 30.192C73.5273 30.1625 73.5273 30.1329 73.5273 30.1182C73.5421 30.0739 73.5569 30.0739 73.5865 30.1182C74.0007 30.7826 74.4148 31.4471 74.8289 32.0968C78.2456 37.5748 79.8134 43.5549 79.8874 49.9631C79.8874 50.0074 79.8874 50.0222 79.9022 50.0222Z" fill="white"/>
</svg>
